<svg id="Capa_1" enable-background="new 0 0 512 512" height="512" viewBox="0 0 512 512" width="512" xmlns="http://www.w3.org/2000/svg"><g><g><g><path d="m152.231 356.991-56.713-62.873c-5.818-6.701-13.881-10.271-22.08-10.564 0 0-.657.093-.949.091-7.24-.053-13.193 3.956-19.078 9.111 0 0-4.896 3.599-4.753 6.631l-.056-100.427c0-14.552-10.023-26.752-23.513-30.015 0 0-4.736-.352-7.224-.352-5.659 0-6.955 7.333-6.955 13.017l.262 138.256c0 9.182 3.056 18.101 8.684 25.337l46.409 59.663c4.178 5.413 6.445 12.067 6.445 18.915l-1.198 35.287h96.177l3.348-20.814v-31.062c0-18.471-6.684-36.312-18.806-50.201z" fill="#e3a76f"/><g><path d="m121.467 375.359c-3.088 1.843-7.05 1.235-9.444-1.449l-60.857-68.248c-1.695-1.952-2.528-4.367-2.528-6.761 0-2.877 1.192-5.723 3.514-7.758 6.124-5.364 13.763-7.857 21.285-7.59-1.695.976-3.314 2.144-4.845 3.48-2.322 2.034-3.514 4.881-3.514 7.758 0 2.394.832 4.809 2.528 6.761l55.616 62.372c3.136 3.517 2.291 9.021-1.755 11.435z" fill="#d6995c"/></g><path d="m92.45 438.254c-3.608 0-6.533-2.925-6.533-6.533v-6.722c0-10.645-3.586-21.157-10.09-29.582l-45.695-59.207c-3.267-4.203-5.045-9.392-5.045-14.673l.001-152.593c-2.312-.565-4.738-.857-7.225-.857-2.826 0-5.394 1.151-7.244 3.011-1.849 1.86-3 4.439-3 7.285v143.154c0 9.186 3.052 18.105 8.683 25.339l45.694 59.216c4.182 5.405 6.453 12.063 6.453 18.906v13.255 17.982l102.588.514v-18.495z" fill="#d6995c"/><g><path d="m50.159 491.527 1.049-23.611c0-5.675 4.6-10.275 10.275-10.275l6.98-1.921h111.643c5.675 0 10.275 4.6 10.275 10.275v17.542l-2.416 7.685c0 5.675-4.6 10.275-10.275 10.275l-117.256.306c-5.675-.001-10.275-4.601-10.275-10.276z" fill="#ccf49f"/><path d="m190.381 483.537v10.275c0 5.675-4.6 10.275-10.275 10.275h-121.62c-5.675 0-10.275-4.6-10.275-10.275v-27.815c0-5.675 4.6-10.275 10.275-10.275h9.977v21.282c0 3.608 2.925 6.533 6.533 6.533z" fill="#b3e59f"/></g></g><g><path d="m359.769 356.991 56.713-62.873c5.818-6.701 13.881-10.271 22.081-10.564 0 0 .657.093.949.091 7.24-.053 13.193 3.956 19.078 9.111 0 0 4.896 3.599 4.753 6.631l.055-100.428c0-14.552 10.023-26.752 23.513-30.015 0 0 4.736-.352 7.224-.352 5.659 0 6.955 7.333 6.955 13.017l-.262 138.256c0 9.182-3.056 18.101-8.684 25.337l-46.409 59.663c-4.178 5.413-6.445 12.067-6.445 18.915l1.198 35.287h-96.177l-3.348-20.814v-31.062c0-18.47 6.684-36.311 18.806-50.2z" fill="#e3a76f"/><g><path d="m390.533 375.359c3.088 1.843 7.05 1.235 9.444-1.449l60.857-68.248c1.695-1.952 2.528-4.367 2.528-6.761 0-2.877-1.192-5.723-3.514-7.758-6.124-5.364-13.763-7.857-21.285-7.59 1.695.976 3.314 2.144 4.845 3.48 2.322 2.034 3.514 4.881 3.514 7.758 0 2.394-.832 4.809-2.528 6.761l-55.616 62.372c-3.136 3.517-2.291 9.021 1.755 11.435z" fill="#d6995c"/></g><path d="m419.55 438.254c3.608 0 6.533-2.925 6.533-6.533v-6.722c0-10.645 3.586-21.157 10.09-29.582l45.694-59.206c3.267-4.203 5.045-9.392 5.045-14.673l-.001-152.593c2.312-.565 4.738-.857 7.225-.857 2.826 0 5.395 1.151 7.244 3.011s3 4.439 3 7.285v143.154c0 9.186-3.052 18.105-8.683 25.339l-45.694 59.216c-4.182 5.405-6.453 12.063-6.453 18.906v13.255 17.982l-102.588.514v-18.495h78.588z" fill="#d6995c"/><g><path d="m323.567 491.527 1.049-23.611c0-5.675 4.6-10.275 10.275-10.275l6.98-1.921h111.643c5.675 0 10.275 4.6 10.275 10.275v17.542l-2.416 7.685c0 5.675-4.6 10.275-10.275 10.275l-117.256.306c-5.674-.001-10.275-4.601-10.275-10.276z" fill="#ccf49f"/><path d="m463.79 483.537v10.275c0 5.675-4.6 10.275-10.275 10.275h-121.62c-5.675 0-10.275-4.6-10.275-10.275v-27.815c0-5.675 4.6-10.275 10.275-10.275h9.977v21.282c0 3.608 2.925 6.533 6.533 6.533z" fill="#b3e59f"/></g></g><path d="m368.176 7.5c-22.101 0-49.59 13.69-84.039 41.852-7.886 6.447-15.157 12.866-21.371 18.586-3.827 3.522-9.704 3.522-13.531 0-6.214-5.719-13.485-12.138-21.371-18.586-30.039-24.557-54.804-38.118-75.301-41.185 0 0-5.552.354-8.381.354-52.105 0-86.926 41.371-86.926 93.479s33.321 93.128 85.426 93.128c2.829 0 9.899.702 9.899.702 20.497-3.067 45.244-16.625 75.283-41.182 7.886-6.447 15.157-12.866 21.371-18.586 3.827-3.522 9.704-3.522 13.531 0 6.214 5.719 13.485 12.138 21.371 18.586 34.449 28.162 61.938 41.852 84.039 41.852 52.105 0 94.495-42.392 94.495-94.5s-42.39-94.5-94.495-94.5zm-224.352 149.632c-30.398 0-55.129-24.732-55.129-55.132s24.73-55.132 55.129-55.132c18.829 0 55.471 27.884 82.813 53.68.836.789.836 2.116 0 2.904-27.342 25.796-63.984 53.68-82.813 53.68zm224.352 0c-18.83 0-55.474-27.885-82.813-53.68-.836-.789-.836-2.116 0-2.904 27.341-25.796 63.983-53.68 82.813-53.68 2.211 0 4.393.131 6.537.385 9.65 1.145 21.543 2.095 29.011 7.577 13.682 10.042 22.979 28.935 22.979 47.17 0 24.11-15.312 45.828-37.798 53.298-4.507 1.497-16.377 1.666-16.377 1.666-1.444.111-2.895.168-4.352.168z" fill="#ffbee7"/><g fill="#feaee1"><path d="m152.58 195.83c-3.01.45-5.93.67-8.76.67-52.1 0-94.49-42.39-94.49-94.5s42.39-94.5 94.49-94.5c2.83 0 5.75.22 8.76.67-46.82 5.57-83.25 45.52-83.25 93.83s36.43 88.26 83.25 93.83z"/><path d="m388.18 46.87h-20c6.642 0 13.004 1.178 18.907 3.332.006.003.013.015.019.017 21.094 7.738 36.194 28.029 36.194 51.781 0 23.619-14.932 43.816-35.84 51.65l-.001.001c-6 2.25-12.499 3.48-19.279 3.48h18.12c.637.005 1.262 0 1.88 0 30.39 0 55.12-24.73 55.12-55.13s-24.73-55.131-55.12-55.131z"/></g></g><g><path d="m494.217 160.174c-21.146 0-38.349 17.246-38.349 38.444v80.925c-5.841-2.767-12.316-4.017-18.945-3.566-10.202.697-19.522 5.328-26.253 13.042l-56.875 62.968c-.027.03-.055.061-.082.092-13.366 15.294-20.728 34.917-20.728 55.253v42.668h-6.485c-7.444 0-13.5 6.056-13.5 13.5v35c0 7.444 6.056 13.5 13.5 13.5h131c7.444 0 13.5-6.056 13.5-13.5v-35c0-7.444-6.056-13.5-13.5-13.5h-6.548v-24.817c0-5.178 1.741-10.282 4.903-14.373l45.848-59.324c6.64-8.528 10.297-19.184 10.297-30.003v-143.494c0-9.823-7.978-17.815-17.783-17.815zm2.783 161.309c0 7.498-2.533 14.881-7.149 20.81l-45.863 59.345c-5.182 6.703-8.035 15.065-8.035 23.545v24.817h-24.08c-4.143 0-7.5 3.358-7.5 7.5s3.357 7.5 7.5 7.5h44.127v32h-128v-32h48.872c4.143 0 7.5-3.358 7.5-7.5s-3.357-7.5-7.5-7.5h-28.887v-42.668c0-16.686 6.03-32.784 16.983-45.337l56.878-62.971c.032-.036.063-.071.095-.107 4.101-4.716 9.784-7.548 16.005-7.974 6.207-.426 12.225 1.604 16.924 5.714 1.17 1.023 1.29 2.812.318 3.93l-56.89 64.116c-2.749 3.098-2.466 7.838.633 10.587 3.099 2.75 7.839 2.466 10.588-.632l56.939-64.173c1.868-2.187 4.409-6.733 4.409-11.297v-100.57c0-12.927 10.475-23.444 23.349-23.444 1.534 0 2.783 1.263 2.783 2.814v143.495z"/><path d="m185.5 450h-6.485v-42.668c0-20.336-7.361-39.959-20.728-55.253-.028-.032-.057-.064-.085-.096l-.338-.374c-2.779-3.071-7.522-3.31-10.594-.531s-3.31 7.521-.531 10.593l.294.324c10.951 12.553 16.981 28.65 16.981 45.335v42.67h-87.966v-24.817c0-8.48-2.854-16.842-8.034-23.545l-45.881-59.366c-4.6-5.908-7.133-13.291-7.133-20.789v-143.494c0-1.552 1.249-2.814 2.783-2.814 12.874 0 23.349 10.517 23.349 23.444v100.569c0 3.441 1.115 6.989 4.459 11.354l56.89 64.116c1.482 1.67 3.543 2.522 5.613 2.522 1.77 0 3.547-.623 4.975-1.89 3.099-2.749 3.382-7.489.633-10.587l-56.84-64.059c-1.021-1.175-.9-2.964.27-3.988 4.697-4.108 10.709-6.139 16.923-5.712 6.221.425 11.904 3.257 16.005 7.974.033.042 33.069 36.611 33.247 36.811 2.775 3.074 7.519 3.314 10.593.539 3.073-2.777 3.314-7.519.538-10.593l-33.107-36.654c-6.73-7.712-16.051-12.343-26.252-13.04-6.628-.452-13.104.798-18.945 3.565v-80.925c0-21.198-17.203-38.444-38.349-38.444-9.807-.003-17.785 7.989-17.785 17.812v143.494c0 10.82 3.657 21.475 10.28 29.982l45.865 59.345c3.161 4.091 4.902 9.195 4.902 14.373v24.817h-6.547c-7.444 0-13.5 6.056-13.5 13.5v35c0 7.444 6.056 13.5 13.5 13.5h131c7.444 0 13.5-6.056 13.5-13.5v-35c0-7.444-6.056-13.5-13.5-13.5zm-1.5 47h-128v-32h128z"/><path d="m470.171 102c0-56.243-45.755-102-101.995-102-23.9 0-52.942 14.244-88.786 43.545-7.105 5.809-14.407 12.159-21.703 18.874-.961.886-2.412.885-3.373 0-7.296-6.715-14.598-13.065-21.703-18.873-3.87-3.165-7.714-6.195-11.424-9.008-3.302-2.502-8.006-1.855-10.508 1.445s-1.855 8.005 1.445 10.508c3.564 2.703 7.263 5.619 10.992 8.668 6.88 5.624 13.958 11.78 21.039 18.297 6.752 6.215 16.938 6.215 23.689 0 7.081-6.518 14.159-12.674 21.039-18.297 33.056-27.023 58.993-40.159 79.293-40.159 47.97 0 86.995 39.028 86.995 87s-39.025 87-86.995 87c-20.3 0-46.236-13.136-79.292-40.159-6.88-5.624-13.958-11.78-21.039-18.297-6.752-6.215-16.938-6.215-23.689 0-7.081 6.518-14.159 12.674-21.039 18.297-33.056 27.023-58.993 40.159-79.293 40.159-47.97 0-86.995-39.028-86.995-87s39.025-87 86.995-87c11.368 0 24.895 4.315 40.203 12.827 3.619 2.012 8.188.709 10.199-2.911 2.013-3.621.71-8.187-2.91-10.2-17.812-9.902-33.347-14.716-47.492-14.716-56.24 0-101.995 45.757-101.995 102s45.755 102 101.995 102c23.9 0 52.942-14.244 88.786-43.545 7.105-5.809 14.407-12.159 21.703-18.874.961-.886 2.412-.885 3.373 0 7.296 6.715 14.598 13.065 21.703 18.874 35.844 29.301 64.886 43.545 88.787 43.545 56.24 0 101.995-45.757 101.995-102z"/><path d="m390.697 143.962c-3.646 1.966-5.008 6.515-3.042 10.161 1.966 3.645 6.515 5.009 10.161 3.041 20.348-10.973 32.988-32.11 32.988-55.164 0-34.535-28.095-62.632-62.629-62.632-28.057 0-79.491 47.65-89.518 57.202-1.485 1.416-2.326 3.378-2.326 5.43s.841 4.015 2.326 5.43c23.694 22.575 56.948 49.024 79.224 55.552 3.009.887 7.65-.487 9.307-5.088 1.165-3.975-1.113-8.142-5.088-9.307-15.117-4.431-41.046-22.449-67.295-46.588 30.77-28.311 60.363-47.631 73.37-47.631 26.263 0 47.629 21.368 47.629 47.632.001 17.531-9.62 33.61-25.107 41.962z"/><path d="m81.195 102c0 34.535 28.095 62.632 62.629 62.632 28.058 0 79.491-47.65 89.518-57.202 1.485-1.416 2.326-3.378 2.326-5.43s-.841-4.015-2.326-5.43c-10.026-9.552-61.461-57.202-89.518-57.202-34.534 0-62.629 28.097-62.629 62.632zm62.629 47.632c-26.263 0-47.629-21.368-47.629-47.632s21.366-47.632 47.629-47.632c13.007 0 42.602 19.321 73.371 47.632-30.769 28.311-60.364 47.632-73.371 47.632z"/></g></g></svg>