<svg height="512pt" viewBox="0 -22 512.001 512" width="512pt" xmlns="http://www.w3.org/2000/svg"><path d="m470.152344 426.898438h-428.304688v-280.054688c0-8.761719 7.101563-15.867188 15.867188-15.867188h396.570312c8.765625 0 15.867188 7.105469 15.867188 15.867188zm0 0" fill="#426175"/><path d="m70.5 160.550781h371v225.832031h-371zm0 0" fill="#f2f2f2"/><path d="m388.421875 160.550781h53.078125v225.832031h-53.078125zm0 0" fill="#cdd6df"/><path d="m256 319.832031c-25.320312 0-46.230469 18.824219-49.53125 43.238281-8.949219-8.410156-20.984375-13.574218-34.230469-13.574218-23.078125 0-42.488281 15.636718-48.25 36.886718h264.027344c-5.761719-21.25-25.175781-36.886718-48.25-36.886718-13.25 0-25.285156 5.164062-34.234375 13.574218-3.300781-24.414062-24.210938-43.238281-49.53125-43.238281zm0 0" fill="#fed066"/><path d="m339.761719 349.496094c-13.246094 0-25.28125 5.164062-34.230469 13.574218-3.300781-24.414062-24.210938-43.238281-49.53125-43.238281-17.921875 0-33.625 9.4375-42.449219 23.605469 20.113281 4.359375 35.703125 22.351562 38.789063 42.945312h135.675781c-5.765625-21.25-25.175781-36.886718-48.253906-36.886718zm0 0" fill="#f5b556"/><path d="m495.175781 415.203125h-478.351562c-5.148438 0-9.324219 4.171875-9.324219 9.320313 0 20.328124 16.476562 36.804687 36.804688 36.804687h423.390624c20.328126 0 36.804688-16.476563 36.804688-36.804687 0-5.148438-4.175781-9.320313-9.324219-9.320313zm0 0" fill="#cdd6df"/><path d="m495.175781 415.203125h-44.527343v18.644531c0 15.179688-12.304688 27.480469-27.480469 27.480469h44.527343c20.328126 0 36.804688-16.476563 36.804688-36.804687 0-5.148438-4.175781-9.320313-9.324219-9.320313zm0 0" fill="#abb2ba"/><path d="m296.007812 330.285156h-81.230468c-5.515625 0-9.441406-5.359375-7.785156-10.617187l12.851562-40.730469h71.097656l12.847656 40.730469c1.660157 5.257812-2.265624 10.617187-7.78125 10.617187zm0 0" fill="#426175"/><path d="m369.859375 300.613281-8.988281-54.683593c-2.695313-16.40625-12.875-30.621094-27.539063-38.457032l-64.949219-34.691406v91.480469l93.828126 42.226562c3.984374 1.792969 8.355468-1.570312 7.648437-5.875zm0 0" fill="#5abfe9"/><path d="m142.140625 300.613281 8.988281-54.683593c2.695313-16.40625 12.875-30.621094 27.539063-38.457032l64.949219-34.691406v91.480469l-93.832032 42.226562c-3.980468 1.792969-8.351562-1.570312-7.644531-5.875zm0 0" fill="#88dbfd"/><path d="m293.429688 300.703125h-74.859376c-5.757812 0-10.421874-4.667969-10.421874-10.421875v-178.402344c0-17.375 3.886718-34.53125 11.378906-50.210937l21.320312-44.617188c6.085938-12.734375 24.214844-12.734375 30.300782 0l21.324218 44.617188c7.492188 15.679687 11.378906 32.835937 11.378906 50.210937v178.402344c0 5.753906-4.664062 10.421875-10.421874 10.421875zm0 0" fill="#fd715c"/><path d="m292.472656 61.667969-21.324218-44.617188c-6.085938-12.734375-24.214844-12.734375-30.300782 0l-11.707031 24.503907 9.609375 20.113281c7.492188 15.679687 11.382812 32.832031 11.382812 50.210937v188.824219h43.296876c5.753906 0 10.421874-4.667969 10.421874-10.421875v-178.402344c0-17.375-3.886718-34.53125-11.378906-50.210937zm0 0" fill="#e5483c"/><path d="m282.621094 130.136719c0 14.703125-11.917969 26.621093-26.621094 26.621093s-26.621094-11.917968-26.621094-26.621093 11.917969-26.621094 26.621094-26.621094 26.621094 11.917969 26.621094 26.621094zm0 0" fill="#f2f2f2"/><path d="m202.921875 415.203125v23.222656c0 12.648438 10.25 22.902344 22.898437 22.902344h60.355469c12.648438 0 22.902344-10.253906 22.902344-22.902344v-23.222656zm0 0" fill="#f2f2f2"/><path d="m175.132812 200.859375c-16.609374 8.875-28.351562 25.269531-31.40625 43.855469l-8.984374 54.683594c-.777344 4.722656 1.097656 9.46875 4.894531 12.386718 2.308593 1.773438 5.09375 2.691406 7.902343 2.691406 1.804688 0 3.621094-.378906 5.328126-1.148437l47.84375-21.53125c.316406 3.757813 1.796874 7.191406 4.078124 9.933594l-4.945312 15.683593c-1.519531 4.808594-.679688 9.902344 2.304688 13.96875 1.785156 2.4375 4.152343 4.25 6.847656 5.316407-2.957032 4.175781-5.332032 8.730469-7.070313 13.554687-8.890625-5.375-19.105469-8.253906-29.6875-8.253906-23.9375 0-45.246093 14.90625-53.679687 36.886719h-40.558594v-210.835938h99.839844c4.144531 0 7.5-3.359375 7.5-7.5s-3.355469-7.5-7.5-7.5h-107.339844c-4.144531 0-7.5 3.359375-7.5 7.5v225.832031c0 4.144532 3.355469 7.5 7.5 7.5h371c4.144531 0 7.5-3.355468 7.5-7.5v-225.832031c0-4.140625-3.355469-7.5-7.5-7.5h-107.648438c-4.140624 0-7.5 3.359375-7.5 7.5s3.359376 7.5 7.5 7.5h100.148438v210.832031h-40.558594c-8.433594-21.980468-29.742187-36.886718-53.679687-36.886718-10.578125 0-20.796875 2.878906-29.6875 8.253906-1.792969-4.976562-4.269531-9.667969-7.359375-13.957031 2.3125-1.089844 4.34375-2.757813 5.921875-4.910157 2.980469-4.066406 3.824219-9.160156 2.304687-13.96875l-4.632812-14.683593c2.792968-2.886719 4.625-6.703125 4.980468-10.933594l47.84375 21.53125c1.710938.769531 3.523438 1.148437 5.328126 1.148437 2.808593 0 5.59375-.914062 7.902343-2.691406 3.796875-2.917968 5.671875-7.664062 4.894531-12.386718l-8.984374-54.679688c-3.054688-18.585938-14.792969-34.980469-31.40625-43.855469l-25.515626-13.628906v-75.355469c0-18.375-4.1875-36.855468-12.113281-53.441406l-21.320312-44.621094c-4.074219-8.523437-12.472657-13.816406-21.917969-13.816406s-17.84375 5.292969-21.917969 13.816406l-21.320312 44.621094c-7.925781 16.585938-12.113281 35.0625-12.113281 53.441406v75.351563zm-24.976562 97.238281 8.371094-50.949218c2.300781-14.011719 11.152344-26.367188 23.675781-33.058594l18.445313-9.851563v71.136719zm142.152344 10.105469 4.328125 13.722656c.027343.085938.101562.320313-.097657.585938-.195312.273437-.4375.273437-.53125.273437h-81.230468c-.09375 0-.335938 0-.535156-.273437-.195313-.269531-.125-.5-.097657-.585938l4.332031-13.722656h.089844zm18.359375 60.332031c7.914062-7.441406 18.246093-11.539062 29.097656-11.539062 15.664063 0 29.800781 8.632812 37.164063 21.886718h-241.859376c7.363282-13.253906 21.5-21.886718 37.164063-21.886718 10.851563 0 21.183594 4.097656 29.097656 11.539062 2.046875 1.921875 4.996094 2.542969 7.644531 1.601563 2.644532-.9375 4.546876-3.277344 4.925782-6.0625 1.386718-10.257813 6.402344-19.503907 14.207031-26.289063h55.78125c7.804687 6.785156 12.824219 16.03125 14.207031 26.289063.378906 2.785156 2.277344 5.125 4.925782 6.0625 2.648437.941406 5.601562.320312 7.644531-1.601563zm19.128906-154.445312c12.523437 6.691406 21.375 19.046875 23.675781 33.058594l8.371094 50.949218-50.492188-22.722656v-71.136719zm-114.148437-102.210938c0-16.15625 3.679687-32.398437 10.644531-46.976562l21.320312-44.617188c1.582031-3.3125 4.71875-5.285156 8.386719-5.285156s6.800781 1.972656 8.382812 5.285156l21.320313 44.617188c6.96875 14.578125 10.648437 30.820312 10.648437 46.976562v178.402344c0 1.609375-1.3125 2.921875-2.921874 2.921875h-74.863282c-1.609375 0-2.921875-1.3125-2.921875-2.921875v-178.402344zm0 0"/><path d="m256 164.257812c18.816406 0 34.121094-15.304687 34.121094-34.121093 0-18.816407-15.304688-34.121094-34.121094-34.121094s-34.121094 15.304687-34.121094 34.121094c0 18.816406 15.304688 34.121093 34.121094 34.121093zm0-53.242187c10.542969 0 19.121094 8.578125 19.121094 19.121094s-8.578125 19.125-19.121094 19.125-19.121094-8.578125-19.121094-19.125c0-10.542969 8.578125-19.121094 19.121094-19.121094zm0 0"/><path d="m495.175781 407.703125h-17.523437v-260.859375c0-12.882812-10.480469-23.367188-23.367188-23.367188h-120.433594c-4.140624 0-7.5 3.359376-7.5 7.5 0 4.144532 3.359376 7.5 7.5 7.5h120.433594c4.613282 0 8.367188 3.753907 8.367188 8.367188v260.859375h-413.304688v-260.859375c0-4.609375 3.753906-8.367188 8.367188-8.367188h120.125c4.144531 0 7.5-3.355468 7.5-7.5 0-4.140624-3.355469-7.5-7.5-7.5h-120.125c-12.886719 0-23.367188 10.484376-23.367188 23.367188v260.859375h-17.523437c-9.277344 0-16.824219 7.546875-16.824219 16.820313 0 24.429687 19.875 44.304687 44.304688 44.304687h423.390624c24.429688 0 44.304688-19.875 44.304688-44.304687 0-9.273438-7.546875-16.820313-16.824219-16.820313zm-208.996093 46.125h-60.355469c-8.496094 0-15.402344-6.910156-15.402344-15.402344v-15.722656h91.160156v15.722656c-.003906 8.492188-6.910156 15.402344-15.402343 15.402344zm-271.179688-29.304687c0-1.003907.816406-1.824219 1.824219-1.824219h178.597656v15.726562c0 5.617188 1.527344 10.882813 4.195313 15.402344h-155.3125c-16.160157 0-29.304688-13.144531-29.304688-29.304687zm452.695312 29.304687h-155.3125c2.667969-4.519531 4.195313-9.785156 4.195313-15.402344v-15.722656h178.597656c1.007813 0 1.824219.816406 1.824219 1.824219 0 16.15625-13.144531 29.300781-29.304688 29.300781zm0 0"/></svg>