<svg id="Capa_1" enable-background="new 0 0 512 512" height="512" viewBox="0 0 512 512" width="512" xmlns="http://www.w3.org/2000/svg"><g><g><g><g><g><path d="m317.416 7.5h-122.832c-5.523 0-10 4.477-10 10v89.81c0 5.523 4.477 10 10 10h38.37c3.789 0 7.252 2.141 8.945 5.53l11.417 22.847c1.105 2.212 4.259 2.218 5.364.006 2.856-5.716 7.498-15.004 11.424-22.861 1.692-3.386 5.15-5.522 8.935-5.522h38.376c5.523 0 10-4.477 10-10v-89.81c.001-5.523-4.476-10-9.999-10z" fill="#dd636e"/></g></g></g><g><g><g><path d="m140.332 107.31h-122.832c-5.523 0-10 4.477-10 10v89.81c0 5.523 4.477 10 10 10h57.65c3.105 0 6.035 1.443 7.927 3.904l24.283 31.581c1.746 2.271 5.378 1.036 5.378-1.829v-23.656c0-5.523 4.477-10 10-10h17.592c5.523 0 10-4.477 10-10v-89.81c.002-5.523-4.475-10-9.998-10z" fill="#90d8f9"/></g></g></g><g><path d="m371.668 107.31h122.832c5.523 0 10 4.477 10 10v89.81c0 5.523-4.477 10-10 10h-57.65c-3.105 0-6.035 1.443-7.927 3.904l-24.283 31.581c-1.746 2.271-5.378 1.036-5.378-1.829v-23.656c0-5.523-4.477-10-10-10h-17.592c-5.523 0-10-4.477-10-10v-89.81c-.002-5.523 4.475-10 9.998-10z" fill="#b3e59f"/></g><g><g><g><path d="m204.744 107.31v-89.81c0-5.523 4.477-10 10-10h-20.16c-5.523 0-10 4.477-10 10v89.81c0 5.523 4.477 10 10 10h20.16c-5.523 0-10-4.477-10-10z" fill="#c63d4f"/></g></g></g><g><g><g><path d="m262.059 122.84c-1.694-3.389-5.157-5.53-8.945-5.53h-20.16c3.789 0 7.252 2.141 8.945 5.53l11.417 22.847c1.105 2.212 4.259 2.218 5.364.006 1.915-3.832 4.633-9.271 7.399-14.807z" fill="#c63d4f"/></g></g></g><g><g><g><path d="m27.66 207.12v-89.81c0-5.523 4.477-10 10-10h-20.16c-5.523 0-10 4.477-10 10v89.81c0 5.523 4.477 10 10 10h20.16c-5.523 0-10-4.477-10-10z" fill="#75cef9"/></g></g></g><g><g><g><path d="m103.238 221.024c-1.893-2.462-4.822-3.904-7.927-3.904h-20.16c3.105 0 6.034 1.443 7.927 3.904l24.283 31.581c1.746 2.271 5.378 1.036 5.378-1.829v-17.395z" fill="#75cef9"/></g></g></g><g><path d="m419.421 227.12c0-5.523-4.477-10-10-10h-17.592c-5.523 0-10-4.477-10-10v-89.81c0-5.523 4.477-10 10-10h-20.16c-5.523 0-10 4.477-10 10v89.81c0 5.523 4.477 10 10 10h17.592c5.523 0 10 4.477 10 10v23.657c0 2.865 3.632 4.1 5.378 1.829l14.782-19.224z" fill="#95d6a4"/></g><g><path d="m182.819 298.899v46.69c0 33.397 27.074 60.47 60.47 60.47h25.421c33.397 0 60.47-27.074 60.47-60.47v-46.69z" fill="#4a80aa"/></g><g><path d="m200.819 345.589v-46.69h-18v46.69c0 33.397 27.073 60.47 60.47 60.47h18c-33.396 0-60.47-27.073-60.47-60.47z" fill="#407093"/></g><g><g><g><path d="m387.848 315.439-17.022-1.422-7.003 3.652-7.069 28.385c-1.373 5.512-4.386 10.477-8.642 14.239l-31.854 28.157c-4.088 3.613-9.355 5.608-14.811 5.608h-90.897c-5.456 0-10.723-1.994-14.811-5.608l-31.854-28.157c-4.256-3.762-7.27-8.727-8.642-14.239l-7.069-28.385-7.003-3.652-17.022 1.422-6.995 10.992 8.103 37.148c1.657 7.598 5.387 14.588 10.776 20.195l49.507 51.515c4.871 5.069 7.592 11.826 7.592 18.855v40.356c0 5.523 4.477 10 10 10h105.73c5.523 0 10-4.477 10-10v-40.355c0-7.03 2.721-13.787 7.592-18.855l49.507-51.515c5.389-5.607 9.118-12.597 10.776-20.195l8.103-37.148z" fill="#dd636e"/></g></g></g><g><g><g><path d="m372.008 315.439-8.184 2.23-7.069 28.385c-1.373 5.512-4.386 10.477-8.642 14.239l-31.854 28.157c-4.088 3.613-9.355 5.608-14.811 5.608h17.19c5.456 0 10.723-1.994 14.811-5.608l31.854-28.157c4.256-3.762 7.269-8.727 8.642-14.239l5.939-23.849-3.316-5.807z" fill="#c63d4f"/></g></g></g><g><g><g><path d="m209.854 494.5v-40.355c0-7.03-2.721-13.787-7.592-18.855l-49.507-51.515c-5.389-5.607-9.118-12.597-10.776-20.195l-10.632-48.741-7.196.601-6.995 10.992 8.103 37.148c1.657 7.598 5.387 14.588 10.776 20.195l49.507 51.515c4.871 5.069 7.592 11.826 7.592 18.855v40.355c0 5.523 4.477 10 10 10h16.719c-5.522 0-9.999-4.477-9.999-10z" fill="#c63d4f"/></g></g></g><g><path d="m123.117 289.62c8.842-3.247 18.546 1.896 20.822 11.036l4.237 17.013-31.019 8.762-4.052-18.574c-1.685-7.726 2.589-15.511 10.012-18.237z" fill="#ffb8a9"/></g><g><path d="m129.825 307.857c-1.45-6.648 1.519-13.33 7.102-16.805-3.979-2.471-9.017-3.193-13.81-1.432-7.423 2.726-11.697 10.511-10.011 18.237l4.052 18.574 15.749-4.449z" fill="#ff947e"/></g><g><path d="m388.883 289.62c-8.842-3.247-18.546 1.896-20.822 11.036l-4.237 17.013 31.019 8.762 4.052-18.574c1.685-7.726-2.589-15.511-10.012-18.237z" fill="#ffb8a9"/></g><g><path d="m385.251 300.657c1.017-4.084 3.522-7.361 6.766-9.457-.969-.626-2.01-1.167-3.134-1.579-8.842-3.247-18.546 1.896-20.822 11.036l-4.237 17.013 16.06 4.536z" fill="#ff947e"/></g><g><path d="m216.368 278.379v51.978c0 9.68 4.045 18.92 11.158 25.486l.432.399c3.802 3.509 8.307 6.084 13.162 7.605v6.815c0 7.643-3.215 14.934-8.858 20.089l-3.622 3.309 20.491 15.998c4.037 3.151 9.7 3.151 13.737 0l20.492-15.998-3.622-3.309c-5.643-5.155-8.858-12.446-8.858-20.089v-6.815c4.855-1.521 9.361-4.095 13.162-7.605l.432-.399c7.113-6.566 11.158-15.806 11.158-25.486v-51.978l-30.092-18.779z" fill="#ffb8a9"/></g><g><path d="m243.819 394.059 3.622-3.309c5.643-5.155 8.858-12.446 8.858-20.089v-6.815c-4.855-1.521-9.361-4.095-13.162-7.605l-.432-.399c-7.113-6.566-11.158-15.806-11.158-25.486v-51.978l39.756-15.183-5.763-3.596-49.172 18.779v51.978c0 9.68 4.045 18.92 11.158 25.486l.432.399c3.802 3.509 8.307 6.084 13.162 7.605v6.815c0 7.643-3.215 14.934-8.858 20.089l-3.622 3.309 20.491 15.998c4.037 3.151 9.7 3.151 13.737 0l.721-.563z" fill="#ff947e"/></g><g><path d="m237.981 298.899c14.845 0 26.88-12.035 26.88-26.88v-3.84 6.96c0 13.122 10.638 23.76 23.76 23.76h3.6 36.96v-6.31c0-30.713-24.898-55.61-55.61-55.61h-35.141c-30.713 0-55.61 24.898-55.61 55.61v6.31z" fill="#4a80aa"/></g><g><path d="m256.43 236.979h-18c-30.713 0-55.61 24.898-55.61 55.61v6.31h18v-6.31c-.001-30.712 24.897-55.61 55.61-55.61z" fill="#407093"/></g><g><path d="m77.471 182.982-13.4 7.045c-2.278 1.197-4.94-.737-4.505-3.273l2.559-14.921c.173-1.007-.161-2.035-.893-2.748l-10.841-10.567c-1.843-1.796-.826-4.925 1.721-5.295l14.982-2.177c1.011-.147 1.885-.782 2.338-1.698l6.7-13.576c1.139-2.307 4.429-2.307 5.568 0l6.7 13.576c.452.916 1.326 1.551 2.338 1.698l14.982 2.177c2.546.37 3.563 3.499 1.721 5.295l-10.841 10.567c-.732.713-1.066 1.741-.893 2.748l2.559 14.921c.435 2.536-2.227 4.47-4.505 3.273l-13.4-7.045c-.905-.476-1.985-.476-2.89 0z" fill="#e8edf2"/></g><g><path d="m259.507 89.03 25.783-25.378c5.612-5.524 5.907-14.478.67-20.359-5.611-6.302-15.351-6.634-21.378-.729l-6.484 6.352c-1.166 1.143-3.032 1.143-4.199 0l-6.484-6.352c-6.027-5.905-15.767-5.573-21.378.729-5.236 5.881-4.942 14.835.67 20.359l25.783 25.378c1.949 1.916 5.071 1.916 7.017 0z" fill="#e8edf2"/></g></g><g><path d="m182.819 344.899c4.142 0 7.5-3.358 7.5-7.5v-44.81c0-26.528 21.582-48.11 48.11-48.11h35.141c26.528 0 48.111 21.582 48.111 48.11v44.81c0 4.142 3.358 7.5 7.5 7.5s7.5-3.358 7.5-7.5v-44.81c0-34.799-28.311-63.11-63.111-63.11h-35.14c-34.799 0-63.11 28.311-63.11 63.11v44.81c-.001 4.143 3.357 7.5 7.499 7.5z"/><path d="m391.469 282.58c-6.212-2.28-13.126-1.811-18.972 1.287-5.845 3.099-10.115 8.558-11.713 14.977l-11.306 45.398c-1.01 4.056-3.199 7.664-6.332 10.433l-31.854 28.157c-2.719 2.403-6.215 3.727-9.843 3.727h-15.178l-1.474-1.347c-4.077-3.725-6.416-9.028-6.416-14.551v-1.693c3.893-1.822 7.523-4.237 10.748-7.214l.434-.4c8.624-7.962 13.571-19.26 13.571-30.997v-23.958h2.308c4.142 0 7.5-3.358 7.5-7.5s-3.358-7.5-7.5-7.5h-16.819c-8.966 0-16.26-7.294-16.26-16.26v-6.96c0-4.142-3.358-7.5-7.5-7.5s-7.5 3.358-7.5 7.5v3.84c0 10.686-8.694 19.38-19.38 19.38h-30.763c-4.142 0-7.5 3.358-7.5 7.5s3.358 7.5 7.5 7.5h1.648v23.958c0 11.737 4.946 23.035 13.572 30.999l.43.396c3.226 2.978 6.856 5.394 10.75 7.216v1.693c0 5.522-2.339 10.826-6.417 14.551l-1.474 1.346h-15.178c-3.628 0-7.124-1.324-9.843-3.727l-31.854-28.157c-3.132-2.769-5.322-6.376-6.332-10.433l-11.306-45.398c-1.599-6.42-5.868-11.879-11.714-14.978-5.845-3.098-12.76-3.567-18.971-1.287-10.882 3.996-17.224 15.55-14.754 26.875l12.155 55.722c1.953 8.957 6.344 17.184 12.696 23.794l49.507 51.515c3.546 3.69 5.499 8.541 5.499 13.659v40.357c0 9.649 7.85 17.5 17.5 17.5h105.73c9.65 0 17.5-7.851 17.5-17.5v-40.355c0-5.118 1.953-9.968 5.5-13.659l49.507-51.515c6.352-6.61 10.742-14.837 12.696-23.793l12.155-55.722c2.471-11.326-3.872-22.88-14.753-26.876zm-158.426 68.149-.43-.396c-5.558-5.131-8.745-12.412-8.745-19.975v-23.958h14.113c10.405 0 19.745-4.646 26.055-11.973 5.634 7.165 14.33 11.807 24.096 11.959v23.973c0 7.563-3.188 14.844-8.743 19.973l-.434.4c-5.037 4.65-11.585 7.21-18.44 7.21h-9.029c-6.855 0-13.404-2.561-18.443-7.213zm38.885 42.741-13.675 10.676c-1.327 1.035-3.18 1.035-4.506 0l-13.675-10.676c4.999-5.741 7.991-13.016 8.471-20.641.976.068 13.937.068 14.913 0 .481 7.625 3.473 14.899 8.472 20.641zm-151.495-87.211c-.882-4.044 1.383-8.171 5.269-9.598 2.251-.827 4.657-.663 6.776.459 2.118 1.123 3.604 3.022 4.184 5.349l2.48 9.959-16.355 4.62zm258.979 55.722c-1.363 6.247-4.425 11.986-8.856 16.597l-49.507 51.515c-6.245 6.499-9.684 15.041-9.684 24.052v40.355c0 1.378-1.122 2.5-2.5 2.5h-105.73c-1.378 0-2.5-1.122-2.5-2.5v-40.355c0-9.012-3.439-17.554-9.684-24.052l-49.507-51.515c-4.431-4.61-7.493-10.35-8.856-16.597l-6.599-30.25 16.779-4.74 5.199 20.877c1.747 7.016 5.535 13.256 10.953 18.046l31.854 28.157c5.463 4.829 12.487 7.489 19.778 7.489h15.508l18.457 14.409c3.381 2.64 7.432 3.959 11.484 3.959s8.103-1.319 11.484-3.959l18.457-14.409h15.508c7.291 0 14.315-2.66 19.778-7.489l31.854-28.157c5.418-4.79 9.205-11.03 10.952-18.046l5.199-20.877 16.779 4.74zm12.155-55.722-2.354 10.789-16.355-4.62 2.48-9.959c.579-2.327 2.065-4.226 4.183-5.349 2.119-1.123 4.525-1.285 6.776-.459 3.887 1.427 6.152 5.553 5.27 9.598z"/><path d="m113.12 260.718c4.259-1.448 7.12-5.443 7.12-9.941v-23.657c0-1.378 1.122-2.5 2.5-2.5h17.592c9.649 0 17.5-7.851 17.5-17.5v-89.81c0-9.649-7.851-17.5-17.5-17.5h-122.832c-9.649 0-17.5 7.851-17.5 17.5v35.45c0 4.142 3.358 7.5 7.5 7.5s7.5-3.358 7.5-7.5v-35.45c0-1.378 1.122-2.5 2.5-2.5h122.832c1.378 0 2.5 1.122 2.5 2.5v89.81c0 1.378-1.122 2.5-2.5 2.5h-17.592c-9.65 0-17.5 7.851-17.5 17.5v10.422l-16.216-21.089c-3.29-4.279-8.476-6.833-13.873-6.833h-57.651c-1.378 0-2.5-1.122-2.5-2.5v-19.185c0-4.142-3.358-7.5-7.5-7.5s-7.5 3.358-7.5 7.5v19.185c0 9.649 7.851 17.5 17.5 17.5h57.651c.771 0 1.512.365 1.982.976l24.284 31.581c2.027 2.636 5.125 4.101 8.323 4.101 1.128 0 2.269-.183 3.38-.56z"/><path d="m504.5 139.83c4.142 0 7.5-3.358 7.5-7.5v-15.02c0-9.649-7.851-17.5-17.5-17.5h-122.832c-9.65 0-17.5 7.851-17.5 17.5v89.81c0 9.649 7.85 17.5 17.5 17.5h17.592c1.378 0 2.5 1.122 2.5 2.5v23.657c0 4.498 2.861 8.493 7.12 9.941 1.111.378 2.251.56 3.38.56 3.198 0 6.297-1.465 8.324-4.101l24.283-31.581c.47-.611 1.211-.976 1.982-.976h57.65c9.649 0 17.5-7.851 17.5-17.5v-39c0-4.142-3.358-7.5-7.5-7.5s-7.5 3.358-7.5 7.5v39c0 1.378-1.122 2.5-2.5 2.5h-57.65c-5.397 0-10.583 2.554-13.873 6.833l-16.216 21.089v-10.422c0-9.649-7.851-17.5-17.5-17.5h-17.592c-1.378 0-2.5-1.122-2.5-2.5v-89.81c0-1.378 1.122-2.5 2.5-2.5h122.832c1.378 0 2.5 1.122 2.5 2.5v15.02c0 4.142 3.358 7.5 7.5 7.5z"/><path d="m194.584 124.81h38.37c.953 0 1.81.53 2.236 1.382l11.417 22.848c1.791 3.583 5.391 5.809 9.395 5.809 4.001 0 7.598-2.223 9.387-5.803l11.424-22.861c.424-.848 1.277-1.375 2.226-1.375h38.376c9.649 0 17.5-7.851 17.5-17.5v-89.81c0-9.649-7.851-17.5-17.5-17.5h-18.295c-4.142 0-7.5 3.358-7.5 7.5s3.358 7.5 7.5 7.5h18.296c1.378 0 2.5 1.122 2.5 2.5v89.81c0 1.378-1.122 2.5-2.5 2.5h-38.376c-6.669 0-12.664 3.705-15.644 9.669l-7.396 14.8-7.392-14.792c-2.983-5.969-8.981-9.677-15.654-9.677h-38.37c-1.378 0-2.5-1.122-2.5-2.5v-89.81c0-1.378 1.122-2.5 2.5-2.5h69.496c4.142 0 7.5-3.358 7.5-7.5s-3.358-7.5-7.5-7.5h-69.496c-9.65 0-17.5 7.851-17.5 17.5v89.81c0 9.649 7.851 17.5 17.5 17.5z"/><path d="m115.359 153.018c-1.256-3.867-4.537-6.633-8.561-7.218l-12.695-1.845-5.677-11.504c-1.8-3.646-5.443-5.911-9.51-5.911s-7.71 2.265-9.51 5.911l-5.677 11.504-12.695 1.845c-4.024.585-7.304 3.351-8.56 7.218s-.228 8.032 2.683 10.87l9.186 8.955-2.168 12.644c-.688 4.008.929 7.982 4.219 10.373 1.859 1.35 4.033 2.036 6.223 2.036 1.685 0 3.38-.407 4.945-1.229l11.355-5.97 11.354 5.969c3.6 1.893 7.878 1.583 11.168-.806 3.29-2.39 4.907-6.365 4.219-10.372l-2.168-12.644 9.186-8.954c2.91-2.84 3.939-7.005 2.683-10.872zm-23.995 10.696c-2.5 2.437-3.64 5.946-3.049 9.386l1.054 6.144-5.519-2.902c-1.544-.811-3.239-1.217-4.933-1.217s-3.388.406-4.933 1.217c0 0-.001.001-.002.001l-5.517 2.901 1.053-6.143c.591-3.44-.549-6.95-3.05-9.387l-4.463-4.351 6.168-.896c3.454-.502 6.439-2.67 7.984-5.801l2.759-5.59 2.759 5.59c1.545 3.13 4.53 5.298 7.984 5.8l6.168.896z"/><path d="m433.084 191.46c4.142 0 7.5-3.358 7.5-7.5v-14.1h14.1c4.142 0 7.5-3.358 7.5-7.5s-3.358-7.5-7.5-7.5h-14.1v-14.1c0-4.142-3.358-7.5-7.5-7.5s-7.5 3.358-7.5 7.5v14.1h-14.1c-4.142 0-7.5 3.358-7.5 7.5s3.358 7.5 7.5 7.5h14.1v14.1c0 4.142 3.358 7.5 7.5 7.5z"/><path d="m256 40.475-3.334-3.267c-4.394-4.305-10.199-6.569-16.349-6.351-6.148.209-11.788 2.855-15.879 7.45-7.902 8.875-7.458 22.355 1.011 30.691l25.784 25.378c2.417 2.379 5.593 3.568 8.768 3.568 3.176 0 6.351-1.189 8.768-3.568l25.783-25.377c8.469-8.336 8.913-21.817 1.01-30.691-4.091-4.595-9.73-7.241-15.878-7.45-6.145-.213-11.955 2.045-16.35 6.351zm13.832 7.447c1.436-1.406 3.333-2.148 5.341-2.075 2.008.068 3.851.933 5.187 2.434 2.582 2.899 2.436 7.303-.33 10.026l-24.03 23.652-24.03-23.651c-2.767-2.723-2.912-7.127-.33-10.026 1.336-1.501 3.179-2.365 5.187-2.434.086-.003.171-.004.256-.004 1.913 0 3.71.733 5.084 2.079l6.484 6.353c4.051 3.969 10.644 3.968 14.696 0z"/></g></g></svg>